<?xml version="1.0" encoding="utf-8"?>
<!-- Generator: Adobe Illustrator 22.0.1, SVG Export Plug-In . SVG Version: 6.00 Build 0)  -->
<svg version="1.0" id="Layer_1" xmlns="http://www.w3.org/2000/svg" xmlns:xlink="http://www.w3.org/1999/xlink" x="0px" y="0px"
	 viewBox="0 0 852.7 228.9" style="enable-background:new 0 0 852.7 228.9;" xml:space="preserve">
<style type="text/css">
	.st0{fill:#032765;}
</style>
<path class="st0" d="M102,102.9h-8.5v10.3h8.5V102.9z M102,120h-8.5v10.3h8.5V120z M136.1,102.9h-8.5v10.3h8.5V102.9z M114.8,37.7
	c-37.5,0-68,30.4-68,68c0,37.5,30.4,68,68,68v28.1l47.7-47.7c12.5-12.3,20.3-29.5,20.3-48.4C182.8,68.1,152.3,37.7,114.8,37.7z
	 M149.8,79l-3.4,3.4v58.1H119V120h-8.5v20.5H83.2V82.4L79.7,79v-6.8h70.1V79z M136.1,120h-8.5v10.3h8.5V120z M119,85.8h-8.5v10.3
	h8.5V85.8z M119,102.9h-8.5v10.3h8.5V102.9z M102,85.8h-8.5v10.3h8.5V85.8z M136.1,85.8h-8.5v10.3h8.5V85.8z M656.6,85.5
	c-10.4,0-19.5,4-26.7,8.5l5.6,10.2c5.7-3.5,11.8-6.4,18.3-6.4c8.8,0,11.7,5.8,11.8,12.8c-26.7,2.9-38.4,10.2-38.4,24.2
	c0,11.4,8,19.2,19.4,19.2c7.7,0,14.4-3.9,20.2-8.8h0.4l1.2,7.2h12.5v-38.7C680.9,95.5,672.9,85.5,656.6,85.5z M665.6,134.8
	c-4.8,4.5-8.9,7.2-14.2,7.2c-5.4,0-9.3-2.5-9.3-8.4c0-6.5,5.8-11.2,23.5-13.4V134.8z M579.6,113.7h31.2v-13h-31.2V78.4h36.8v-13
	h-52.2v87h53.5v-13h-38.1V113.7z M720.3,114c-7-2.5-13.5-4.7-13.5-9.7c0-4.1,3.1-7.2,9.6-7.2c5.2,0,9.8,2.3,14.3,5.6l7-9.3
	c-5.3-4.1-12.6-7.9-21.7-7.9c-14.6,0-23.8,8.1-23.8,19.6c0,10.9,9.7,15.8,18.3,19c6.9,2.6,14,5,14,10.5c0,4.5-3.3,7.9-10.4,7.9
	c-6.6,0-12.2-2.8-18.1-7.3l-7.2,9.8c6.4,5.2,15.8,9,24.7,9c16.5,0,25.4-9,25.4-20.2C739.1,121.5,729.2,117.3,720.3,114z
	 M537.9,141.8c-6.3,0-9.2-3.7-9.2-11.4V99.2h16.6V87.1h-16.6V69.3H516l-1.9,17.8L504,87.7v11.4h9.3v31.1c0,14.1,5.6,23.7,20.7,23.7
	c5.2,0,9.7-1.2,13.3-2.4l-2.6-11.3C542.8,141.1,540.2,141.8,537.9,141.8z M791.2,87.1l-9.8,32.1c-1.6,5.8-3.3,12.4-4.9,18.4h-0.5
	c-2-6.1-3.8-12.6-5.7-18.4l-11.3-32.1h-15.5l25.6,64.5l-1.2,4.1c-2.1,6.5-6.1,11.2-13,11.2c-1.6,0-3.5-0.5-4.7-0.9l-2.8,12
	c2.4,0.8,4.9,1.3,8.5,1.3c14.2,0,21-9.2,26.4-23.9l23.6-68.2H791.2z M470.3,85.5c-15.3,0-30,13-30,34.3c0,21.6,14.1,34.2,32.1,34.2
	c8.3,0,16.1-2.9,22.3-7l-5.2-9.6c-4.8,3.1-9.6,4.8-15.2,4.8c-10.5,0-17.9-6.6-19.3-18.5h41.5c0.4-1.6,0.7-4.3,0.7-7.2
	C497.3,98.2,488,85.5,470.3,85.5z M455,114c1.3-10.9,8-16.6,15.7-16.6c8.9,0,13.3,6.3,13.3,16.6H455z M311.8,141.8
	c-6.3,0-9.2-3.7-9.2-11.4V99.2h16.6V87.1h-16.6V69.3h-12.7L288,87.1l-10.1,0.7v11.4h9.3v31.1c0,14.1,5.6,23.7,20.7,23.7
	c5.2,0,9.7-1.2,13.3-2.4l-2.6-11.3C316.7,141.1,314,141.8,311.8,141.8z M345.8,98.7h-0.5l-1.1-11.6h-12.6v65.3h15.3v-39.9
	c4-9.8,10.2-13.4,15.4-13.4c2.8,0,4.5,0.4,6.8,1.1l2.7-13.3c-2-0.9-4.1-1.3-7.5-1.3C357.4,85.5,350.4,90.1,345.8,98.7z M404.2,85.5
	c-15.3,0-30,13-30,34.3c0,21.6,14.1,34.2,32.2,34.2c8.2,0,16.1-2.9,22.3-7l-5.2-9.6c-4.8,3.1-9.6,4.8-15.2,4.8
	c-10.5,0-17.9-6.6-19.2-18.5h41.4c0.4-1.6,0.7-4.3,0.7-7.2C431.2,98.2,421.9,85.5,404.2,85.5z M389,114c1.3-10.9,8-16.6,15.7-16.6
	c8.9,0,13.3,6.3,13.3,16.6H389z M254.4,104.6l-11.7-4.9c-7.2-2.9-13.8-5.5-13.8-12.2c0-6.4,5.3-10.2,13.5-10.2
	c7.5,0,13.4,2.8,18.9,7.4l8-9.9c-6.8-6.8-16.6-11-26.8-11c-16.9,0-29.1,10.7-29.1,24.5c0,12.8,8.9,19.6,17.5,23.1l11.8,5.2
	c8,3.3,13.5,5.6,13.5,12.8c0,6.8-5.4,11.2-15.1,11.2c-8.1,0-16.5-4-22.7-9.8l-8.9,10.5c8.2,8.1,19.5,12.8,31.2,12.8
	c19.5,0,31.2-11.7,31.2-25.8C271.9,115.6,264.7,109,254.4,104.6z"/>
</svg>
